<?xml version="1.0" encoding="utf-8"?>
<!-- Generator: Adobe Illustrator 26.0.1, SVG Export Plug-In . SVG Version: 6.00 Build 0)  -->
<svg version="1.1" id="Capa_1" xmlns="http://www.w3.org/2000/svg" xmlns:xlink="http://www.w3.org/1999/xlink" x="0px" y="0px"
	 viewBox="0 0 100 100" style="enable-background:new 0 0 100 100;" xml:space="preserve">
<style type="text/css">
	.st0{fill:#0076D7;}
	.st1{fill:#FFFFFF;}
</style>
<path class="st0" d="M18,8C12.5,8,8,12.5,8,18v64c0,5.5,4.5,10,10,10h64c5.5,0,10-4.5,10-10V18c0-5.5-4.5-10-10-10H18z"/>
<g>
	<path class="st1" d="M28,21c-2.2,0-4.2,0.7-5.6,1.9S20,26,20,27.9c0,3.7,3.2,6.6,7.4,6.9c0,0,0,0,0,0c0.2,0.1,0.4,0.1,0.6,0.1
		c4.5,0,8-3.2,8-7c0,0,0-0.1,0-0.1C35.8,24,32.4,21,28,21z"/>
	<path class="st1" d="M22,37c-1.1,0-2,0.9-2,2v38c0,1.1,0.9,2,2,2h12c1.1,0,2-0.9,2-2V65.3V39c0-1.1-0.9-2-2-2H22z"/>
	<path class="st1" d="M40,37c-1.1,0-2,0.9-2,2v38c0,1.1,0.9,2,2,2h12c1.1,0,2-0.9,2-2V57c0-1.7,0.5-3.3,1.2-4.4s1.8-1.7,3.7-1.7
		c2,0,3,0.7,3.8,1.8c0.8,1.1,1.2,2.6,1.2,4.3v20c0,1.1,0.9,2,2,2h12c1.1,0,2-0.9,2-2V55.5c0-5.9-1.8-10.6-4.8-13.8S68,37,63.6,37
		c-4.2,0-7.4,1.4-9.6,2.8V39c0-1.1-0.9-2-2-2H40z"/>
</g>
</svg>
