<svg id="Capa_1" data-name="Capa 1" xmlns="http://www.w3.org/2000/svg" viewBox="0 0 566.99 528.19"><defs><style>.cls-1,.cls-3,.cls-4{fill:#fff;}.cls-1{stroke:#6c6a6a;stroke-width:6.99px;}.cls-1,.cls-3,.cls-6,.cls-9{stroke-miterlimit:10;}.cls-2{fill:#2274a5;}.cls-3{stroke:#fff;stroke-width:6.74px;}.cls-3,.cls-6,.cls-9{stroke-linecap:round;}.cls-4,.cls-7{font-size:44.11px;}.cls-10,.cls-4,.cls-7{font-family:ArialRoundedMTBold, Arial Rounded MT Bold;}.cls-5{fill:#a53860;}.cls-6,.cls-9{fill:none;}.cls-6{stroke:#e9d985;stroke-width:7.16px;}.cls-7{fill:#e9d985;}.cls-8{fill:#6a5d7b;}.cls-9{stroke:#61c9a8;stroke-width:7.87px;}.cls-10{font-size:48.83px;fill:#61c9a8;}.cls-11{font-size:58.86px;fill:#e55933;font-family:Poppins-SemiBold, Poppins;font-weight:600;}</style></defs><rect class="cls-1" x="3.5" y="3.5" width="560" height="521.2" rx="65.33"/><path class="cls-2" d="M113.54,458.7V230.59c0-9.68,6.72-17.59,14.92-17.59h48.39c8.21,0,14.92,7.91,14.92,17.59V458.7" transform="translate(-22.5 -131.9)"/><line class="cls-3" x1="104.95" y1="158.58" x2="104.95" y2="319.61"/><line class="cls-3" x1="121.75" y1="183.02" x2="121.75" y2="319.61"/><line class="cls-3" x1="155.36" y1="174.69" x2="155.36" y2="319.61"/><line class="cls-3" x1="138.56" y1="165.82" x2="138.56" y2="319.61"/><text class="cls-4" transform="translate(114.29 131.26)">A</text><path class="cls-5" d="M203.92,297.54H440.85c10,0,18.26,6.72,18.26,14.93v48.38c0,8.21-8.22,14.92-18.26,14.92H203.92" transform="translate(-22.5 -131.9)"/><line class="cls-6" x1="376.95" y1="180.47" x2="188.6" y2="180.47"/><line class="cls-6" x1="348.37" y1="196.66" x2="188.6" y2="196.66"/><line class="cls-6" x1="358.12" y1="229.04" x2="188.6" y2="229.04"/><line class="cls-6" x1="368.49" y1="212.85" x2="188.6" y2="212.85"/><text class="cls-7" transform="translate(389.75 219.16)">B</text><path class="cls-8" d="M203.92,382.33H477.38c11.59,0,21.08,6.71,21.08,14.92v48.39c0,8.2-9.49,14.92-21.08,14.92H203.92" transform="translate(-22.5 -131.9)"/><line class="cls-9" x1="407.96" y1="263.78" x2="188.6" y2="263.78"/><line class="cls-9" x1="374.67" y1="280.59" x2="188.6" y2="280.59"/><line class="cls-9" x1="386.02" y1="314.2" x2="188.6" y2="314.2"/><line class="cls-9" x1="398.1" y1="297.39" x2="188.6" y2="297.39"/><text class="cls-10" transform="translate(422.34 305.49) scale(0.96 1)">C</text><text class="cls-11" transform="translate(86.37 400.11)">Learn to read</text></svg>