<?xml version="1.0" encoding="utf-8"?>
<!-- Generator: Adobe Illustrator 25.0.0, SVG Export Plug-In . SVG Version: 6.00 Build 0)  -->
<svg version="1.1" id="Capa_1" xmlns="http://www.w3.org/2000/svg" xmlns:xlink="http://www.w3.org/1999/xlink" x="0px" y="0px"
	 viewBox="0 0 388 393" style="enable-background:new 0 0 388 393;" xml:space="preserve">
<style type="text/css">
	.st0{fill:#1B123C;}
	.st1{fill:#BB9EB2;}
	.st2{fill:#4C5384;}
</style>
<circle id="XMLID_252_" class="st0" cx="194" cy="199" r="194"/>
<g id="XMLID_248_">
	<path id="XMLID_249_" class="st1" d="M194.7,379C95.1,379,14,298,14,198.3S95.1,17.6,194.7,17.6s180.7,81.1,180.7,180.7
		S294.3,379,194.7,379z M194.7,35.9c-89.6,0-162.4,72.9-162.4,162.4s72.9,162.5,162.4,162.5c89.6,0,162.5-72.9,162.5-162.5
		S284.3,35.9,194.7,35.9z"/>
</g>
<g id="XMLID_244_">
	<path id="XMLID_245_" class="st1" d="M134.4,262.4c-2.2,0-4.4-0.9-6.1-2.5l-62.2-62c-1.6-1.6-2.6-3.9-2.6-6.2s0.9-4.5,2.6-6.2
		l65.4-64.7c15.3-15.2,40.1-15.3,55.4,0l18.8,18.8c7.4,7.4,11.4,17.2,11.4,27.7c-0.1,10.5-4.1,20.3-11.5,27.6l-64.9,64.9
		C138.8,261.5,136.6,262.4,134.4,262.4z M84.6,191.7l49.8,49.7l58.8-58.8c8.5-8.5,8.6-22.3,0.2-30.8L174.6,133
		c-4.1-4.1-9.6-6.3-15.4-6.3s-11.3,2.2-15.4,6.3L84.6,191.7z"/>
</g>
<g id="XMLID_239_">
	<path id="XMLID_243_" class="st2" d="M293.8,174.9L275,156.1c-8.5-8.5-22.3-8.5-30.8,0l-97.5,97.5l49.6,49.5l97.5-97.5
		C302.3,197.2,302.3,183.4,293.8,174.9z"/>
	<path id="XMLID_240_" class="st2" d="M306.1,162.6l-18.8-18.8c-15.3-15.3-40.2-15.3-55.5,0L128.2,247.5c-1.6,1.6-2.6,3.9-2.6,6.2
		s0.9,4.5,2.6,6.2l61.9,61.8c1.7,1.7,3.9,2.5,6.2,2.5s4.5-0.8,6.2-2.5L306.1,218C321.4,202.7,321.4,177.8,306.1,162.6z M300,211.8
		L196.3,315.5l-61.9-61.8L238.1,150c11.9-11.9,31.3-11.9,43.1,0l18.8,18.8C311.8,180.6,311.8,200,300,211.8z"/>
</g>
<circle id="XMLID_237_" class="st1" cx="161.4" cy="84.2" r="10"/>
</svg>
