<?xml version="1.0" encoding="utf-8"?>
<!-- Generator: Adobe Illustrator 26.0.1, SVG Export Plug-In . SVG Version: 6.00 Build 0)  -->
<svg version="1.1" id="Capa_1" xmlns="http://www.w3.org/2000/svg" xmlns:xlink="http://www.w3.org/1999/xlink" x="0px" y="0px"
	 viewBox="0 0 317.6 382.4" style="enable-background:new 0 0 317.6 382.4;" xml:space="preserve">
<style type="text/css">
	.st0{fill:#FDC02D;}
	.st1{fill:#E67979;}
	.st2{fill:#687DB4;}
	.st3{fill:#7AC3EA;}
	.st4{fill:#FFFFFF;}
	.st5{fill:#7A7A7A;}
</style>
<g>
	<path class="st0" d="M128.2,130.1H35.9c-15.7,0-28.4-12.7-28.4-28.4V36.5c0-15.7,12.7-28.4,28.4-28.4h92.3
		c15.7,0,28.4,12.7,28.4,28.4v65.1C156.6,117.4,143.9,130.1,128.2,130.1z"/>
	<path class="st1" d="M282.9,304.7h-92.3c-15.7,0-28.4-12.7-28.4-28.4v-65.1c0-15.7,12.7-28.4,28.4-28.4h92.3
		c15.7,0,28.4,12.7,28.4,28.4v65.1C311.3,291.9,298.6,304.7,282.9,304.7z"/>
	<path class="st2" d="M264.6,175.8h-74.4c-15.5,0-28.1-12.6-28.1-28.1V68.2c0-15.5,12.6-28.1,28.1-28.1h74.4
		c15.5,0,28.1,12.6,28.1,28.1v79.5C292.7,163.3,280.1,175.8,264.6,175.8z"/>
	<path class="st3" d="M128.5,272.6H54.1c-15.5,0-28.1-12.6-28.1-28.1V165c0-15.5,12.6-28.1,28.1-28.1h74.4
		c15.5,0,28.1,12.6,28.1,28.1v79.5C156.6,260,144,272.6,128.5,272.6z"/>
	<g>
		<path class="st4" d="M51.8,43.1c-1.5,2.4-4.7,3-7.1,1.5s-3-4.7-1.5-7.1c1.5-2.4,4.7-3,7.1-1.5C52.7,37.5,53.3,40.7,51.8,43.1z"/>
		<path class="st4" d="M118.9,114.4c-0.5,0-1.1-0.1-1.6-0.3c-2.6-1-4.1-4.1-4.7-9.9c-0.3-3-4.6-5.1-6-5.8c-6.2-3-10.7-3.3-16.9-3.7
			c-7.3-0.5-16.3-1.1-31.7-6.4c-1.8-0.6-3.7-1.4-5.5-2.4c-0.5,1.5-0.5,3.1-0.6,4.3l0,0.3c-0.1,2-1.2,2.8-1.8,3
			c-1.7,0.7-3.8-0.1-7.1-3.1c-6.8-5.8-8.5-15.1-8.9-20.4c-3-3.9-5.3-7.2-7.1-10.8c-3.5-7.2-4.2-15.6-3.4-18.9
			c0.6-2.3,2.4-2.7,3.7-2.7c-1-4.1,0-7.9,2.6-9.8c5.8-4.4,20.9-6,33.5-1.4c5.1-0.8,14.2-1.7,21.4,0c7.4,1.7,12.6,5.3,13,9
			c0.2,1.7-0.7,3.1-2.3,3.9c-2.2,1.1-4.8,3.1-5.8,5.7c4.1,5.3,7.1,10.9,10.1,16.2c4.4,8.1,8.5,15.7,15.7,21.2
			c3.6,2.8,9.9,1.7,15,0.8c4.4-0.8,7.6-1.3,9.3,0.5c0.6,0.6,1.2,1.8,0.7,3.7l-1.9-0.5l1.9,0.5c-2.8,11.1-7.8,16.5-12.2,20.6
			c-0.3,0.3-0.6,0.6-0.9,0.9C125,111.5,122,114.4,118.9,114.4z M51.1,81l1.5,0.8c2.2,1.2,4.4,2.3,6.6,3c14.9,5.1,23.6,5.7,30.7,6.2
			c6.4,0.4,11.5,0.8,18.3,4.1c3.3,1.6,7.7,4.2,8.1,8.8c0.6,5.8,2,6.6,2.2,6.7c1.4,0.5,4.6-2.6,6.1-4c0.3-0.3,0.7-0.6,1-0.9
			c4.2-3.9,8.6-8.6,11.1-18.8l0,0c0-0.1,0-0.2,0-0.2c-1-0.2-3.7,0.3-5.7,0.6c-5.5,0.9-13,2.2-17.9-1.5c-7.9-6-12.2-14-16.8-22.4
			c-3-5.5-6.1-11.2-10.3-16.5L85.5,46l0.2-0.9c1.3-5.4,6.5-8.3,8.1-9.1C93.9,36,94,36,94,36c-0.1-1-3.2-4-10.1-5.7
			c-6.8-1.6-15.8-0.6-20.5,0.1l-0.5,0.1l-0.5-0.2c-11-4.2-25.3-3.1-30.3,0.7c-1.4,1.1-1.8,3.7-1,6.5c0.2,0.6,0.6,2.1-0.3,3.2
			c-0.9,1.1-2.2,1-3,0.9c-0.1,0-0.4,0-0.5,0c-0.5,2.6,0,9.7,3.1,16.1c1.7,3.5,4,6.8,7,10.6l0.4,0.5l0,0.6c0.2,3.7,1.4,13,7.6,18.3
			c1.3,1.1,2.1,1.7,2.6,2c0.1-2,0.3-5,2-7.4L51.1,81z M48,90.7L48,90.7L48,90.7z M27.6,39L27.6,39L27.6,39z"/>
	</g>
	<g>
		<g>
			<g>
				<g>
					<g>
						<path class="st4" d="M222.4,285.3L222.4,285.3c-24.9,0-41.2-11.3-43.8-30.2c-2.1-15.7,2-22.5,12.7-32.9c0,0,0.1-0.1,0.1-0.1
							l2.4-1.9c0.1-0.1,0.3-0.2,0.5-0.2c1.1-0.3,2-0.5,3-0.6c0-0.4,0.2-0.8,0.5-1.1l2-1.7c7.4-6.4,15.2-9.7,23-9.7
							c1.4,0,2.9,0.1,4.3,0.3c0.1-0.4,0.5-0.8,0.9-0.9l3.2-1.1c9.9-3.4,19.1-4,26.5-1.5c2.2,0.7,4.2,1.7,6,2.8l1.5-0.5
							c4.8-1.6,9.8-1.5,14.6,0.3c7.1,2.6,12.7,8.8,14.5,16c6.9,31.1-21.4,53.1-50.6,60.3C236.5,284.4,229.3,285.3,222.4,285.3z
							 M193.3,224.3c-10.5,10.3-13.7,16.1-11.8,30.4c2.3,17.3,17.6,27.7,40.9,27.7h0c6.7,0,13.7-0.9,20.7-2.6
							c27.8-6.9,54.9-27.7,48.4-56.8c-1.6-6.2-6.5-11.6-12.7-13.9c-4-1.5-8.2-1.6-12.2-0.4c0,0,0.1,0.1,0.1,0.1l0.2,0.3
							c0.5,0.6,0.5,1.5-0.1,2c-0.6,0.5-1.4,0.5-2,0c-2.3-2.1-4.9-3.6-8-4.6c-6.6-2.2-14.8-1.8-23.7,1.2c7.9,2.9,17.4,10.5,20.5,21
							c0.6,2,0.9,4,0.9,6c0,0.7-0.5,1.4-1.2,1.5c-0.7,0.1-1.4-0.3-1.6-1c-3.5-11.9-12.1-21.4-22-24.3c-2.2-0.6-4.5-1-6.8-1
							c-6.9,0-13.8,2.9-20.6,8.5c7.8,1.1,14.6,4.5,19.6,10c3.4,3.7,5.9,8.2,7.2,13.1c0.2,0.7-0.2,1.4-0.8,1.7
							c-0.7,0.3-1.4,0.1-1.8-0.5l-0.9-1.4c-5.2-7.9-9.8-14.8-18.3-17.5l-0.5-0.2c-4-1.3-6.4-2.1-11.2-0.8L193.3,224.3z"/>
					</g>
				</g>
			</g>
		</g>
	</g>
	<g>
		<g>
			<g>
				<g>
					<path class="st4" d="M90.7,185.3c-3.4,0-6.2-1.1-7.3-2.2c-2.5-2.5-4.3-12.4,3.5-20.2c7.7-7.7,22.9-8.8,23.5-8.8l2.1-0.1
						l-0.1,2.1c0,0.6-0.9,15.6-8.8,23.5l0,0C99.2,183.9,94.5,185.3,90.7,185.3z M108.5,158c-4.3,0.6-13.9,2.4-19,7.5
						c-6.6,6.6-4.3,14.1-3.5,15c1,1,8.3,3.2,15-3.5C106.2,171.7,108,162.3,108.5,158z"/>
				</g>
			</g>
			<g>
				<path class="st4" d="M100,255.4c-3.4,0-6.6-0.9-9.7-2.7c-4.8,2.7-10,3.4-15.2,1.9c-8.5-2.4-16.2-10.2-21.4-21.4
					c-4.9-10.6-5-25.1-0.2-34.5c2.8-5.6,7.3-9.7,12.8-11.5c7.5-2.6,16.6-1,24.1,4.2c7.5-5.2,16.6-6.8,24.1-4.2
					c5.4,1.9,9.9,6,12.8,11.5v0c4.7,9.4,4.6,24-0.2,34.5c-5.1,11.1-12.9,18.9-21.4,21.4C103.7,255.1,101.9,255.4,100,255.4z
					 M73.7,189.6c-2.2,0-4.3,0.3-6.3,1c-4.5,1.5-8.3,5-10.7,9.7c-4.3,8.5-4.2,21.7,0.3,31.3c4.6,10,11.7,17.3,19.1,19.4
					c4.6,1.3,9.1,0.7,13.2-2l1-0.6l1,0.6c4.2,2.7,8.6,3.4,13.2,2c7.3-2.1,14.5-9.4,19.1-19.4c4.4-9.6,4.6-22.8,0.3-31.3
					c-2.4-4.7-6.2-8.2-10.7-9.7c-6.7-2.3-15.1-0.6-21.8,4.4l-1.1,0.8l-1.1-0.8C84.5,191.5,78.9,189.6,73.7,189.6z"/>
			</g>
		</g>
		<path class="st4" d="M76.5,244c-0.5,0.5-1.2,0.8-1.8,0.8c-0.6,0-1.3-0.2-1.8-0.7c-6.6-6.4-10.9-14.4-12.1-22.4
			c-1.3-9.2,1.6-18.6,7.7-24.5c1-1,2.6-0.9,3.6,0.1c1,1,0.9,2.6-0.1,3.6c-5,4.8-7.3,12.5-6.2,20.1c1,6.9,4.8,13.8,10.6,19.5
			C77.4,241.4,77.4,243,76.5,244z"/>
	</g>
	<g>
		<g>
			<path class="st4" d="M227.7,142.3c-2.6,0-4.8-0.2-6.1-0.4l-1.2-0.1l-0.1-1.2c-0.6-4.9-1.8-21.6,9.2-32.6c11-11,27.7-9.8,32.6-9.2
				l1.2,0.1l0.2,1.2c0.6,4.9,1.8,21.6-9.2,32.6C246.1,140.7,235,142.3,227.7,142.3z M223.2,139c5.6,0.5,19.6,0.8,28.8-8.5
				c9.3-9.3,9-23.2,8.5-28.8c-5.6-0.5-19.6-0.8-28.8,8.5C222.4,119.4,222.7,133.4,223.2,139z"/>
		</g>
		<g>
			<g>
				<path class="st4" d="M239,159.4h-23.2v-17l1.7,0.2c1.8,0.2,5.6,0.6,10.6,0.6c3.1,0,6.2-0.1,9.2-0.4l1.7-0.2V159.4z M218.9,156.3
					h17v-10.4c-2.6,0.2-5.2,0.3-7.8,0.3c-3.9,0-7.1-0.2-9.2-0.4V156.3z"/>
			</g>
		</g>
		<g>
			<path class="st4" d="M219.5,141.7l-2.1-0.4c-6.9-1.4-12.5-4.3-16.9-8.6c-11-11-9.8-27.7-9.2-32.6l0.1-1.2l1.2-0.1
				c4.9-0.6,21.6-1.7,32.6,9.2c0.2,0.2,0.3,0.3,0.4,0.5c0.1,0.1,0.1,0.2,0.2,0.3l0.9,0.9l-0.8,1c-7.8,10.4-7.3,23.7-6.8,29
				L219.5,141.7z M194.3,101.7c-0.5,5.6-0.8,19.6,8.5,28.8c3.5,3.5,7.9,5.9,13.3,7.3c-0.4-6.3,0-18.1,6.8-27.9
				C213.6,100.9,199.9,101.1,194.3,101.7z"/>
		</g>
		<g>
			<path class="st4" d="M227.4,109l-1.3-1.4c-0.1-0.1-0.1-0.1-0.2-0.2c-7.9-7.9-18.3-9.7-25.7-9.9l-1.3,0l-0.2-1.2
				c-1-5.4-0.7-10.2-0.4-12.5l0.1-1.2l1.2-0.1c4.2-0.5,18.5-1.4,27.8,8c3.1,3.1,5.3,6.9,6.7,11.5l0.3,1.1l-0.9,0.6
				c-1.7,1.1-3.2,2.4-4.6,3.8c-0.1,0.1-0.1,0.1-0.2,0.2L227.4,109z M201.5,94.5c7.7,0.4,17.9,2.5,25.9,10.1c1.1-1,2.2-2,3.5-2.9
				c-1.2-3.6-3.1-6.7-5.6-9.2c-7.6-7.6-19.2-7.6-24.1-7.2C201.1,87.4,201,90.7,201.5,94.5z"/>
		</g>
		<g>
			<path class="st4" d="M235.3,102.5l-0.6-1.7c-1.4-4.1-3.5-7.7-6.3-10.6l-1.2-1.3l1.4-1c9-6.5,20.3-5.9,24.8-5.4l1.2,0.1l0.1,1.2
				c0.3,2.4,0.6,7.2-0.4,12.6l-0.2,1.2l-1.2,0.1c-6,0.3-11.4,1.7-16,4.1L235.3,102.5z M231.8,89.3c2.2,2.6,3.9,5.5,5.2,8.8
				c4.3-1.9,9.2-3.1,14.4-3.6c0.6-3.8,0.5-7.2,0.3-9.3C247.8,85,239,84.9,231.8,89.3z"/>
		</g>
		<g>
			<path class="st4" d="M226.5,88.3l-0.9-0.7c-3.8-3-8.5-4.9-14-5.8l-1.4-0.2l0.2-1.4c1.3-12.3,12.8-20.9,16.2-23.2l0.9-0.6l0.9,0.6
				c3.4,2.3,14.8,10.8,16.2,23l0.2,1.5l-1.5,0.2c-6.2,0.7-11.5,2.8-15.7,6L226.5,88.3z M213.6,79c4.9,1,9.3,2.8,12.9,5.4
				c4.1-2.9,9.1-4.9,14.7-5.8c-1.8-9.3-10.1-16.1-13.8-18.7C223.7,62.7,215.3,69.6,213.6,79z"/>
		</g>
	</g>
</g>
<g>
	<path class="st5" d="M32.5,347.9v22c0,1.3-0.8,2.2-2,2.2c-0.7,0-1.5-0.2-2.1-1L13.2,352h-0.1v18.2c0,1.2-0.7,1.9-1.8,1.9
		c-1.1,0-1.8-0.7-1.8-1.9v-22c0-1.4,0.9-2.2,2-2.2c0.8,0,1.5,0.2,2.1,1l15.2,19.1H29v-18.2c0-1.2,0.7-1.9,1.8-1.9
		S32.5,346.7,32.5,347.9z"/>
	<path class="st5" d="M54.6,355.2v15.2c0,1-0.7,1.7-1.7,1.7c-1,0-1.6-0.7-1.6-1.7v-1h-0.1c-1.4,1.9-3.6,2.9-6.5,2.9
		c-5.1,0-7.8-3-7.8-8.5v-8.6c0-1.1,0.7-1.8,1.7-1.8s1.6,0.7,1.6,1.8v8.3c0,3.7,1.8,5.7,5.3,5.7c3.5,0,5.7-2.5,5.7-6.5v-7.6
		c0-1.1,0.7-1.8,1.6-1.8C54,353.4,54.6,354,54.6,355.2z"/>
	<path class="st5" d="M71.9,369c-1.1,2.2-3.3,3.3-6.1,3.3c-4.3,0-6.9-2.7-6.9-7.3v-15.9c0-1.1,0.7-1.8,1.7-1.8s1.6,0.7,1.6,1.8v4.4
		h7.3c1,0,1.6,0.6,1.6,1.6s-0.6,1.5-1.6,1.5h-7.3v8.5c0,2.6,1.4,4.1,3.7,4.1c1.6,0,2.6-0.7,3.3-1.9c0.3-0.4,0.7-0.7,1.3-0.7
		c0.9,0,1.5,0.7,1.5,1.6C72.1,368.5,72,368.8,71.9,369z"/>
	<path class="st5" d="M86.4,354.9c0,1-0.7,1.6-1.7,1.6c-4,0-6.3,2.3-6.3,7.3v6.4c0,1.1-0.6,1.8-1.7,1.8c-1,0-1.6-0.7-1.6-1.8v-15.1
		c0-1.1,0.6-1.8,1.6-1.8c1.1,0,1.7,0.7,1.7,1.8v1.3h0.1c1.3-2.1,3.3-3.3,6.2-3.3C85.7,353.2,86.4,353.9,86.4,354.9z"/>
	<path class="st5" d="M88.7,347.9c0-1.2,0.8-2.1,2.1-2.1c1.3,0,2.1,0.9,2.1,2.1c0,1.2-0.8,2.1-2.1,2.1
		C89.5,350,88.7,349.1,88.7,347.9z M92.4,355.2v15.1c0,1.1-0.6,1.8-1.7,1.8c-1,0-1.6-0.7-1.6-1.8v-15.1c0-1.1,0.6-1.8,1.6-1.8
		C91.8,353.4,92.4,354,92.4,355.2z"/>
	<path class="st5" d="M113.7,369c-1.7,2.1-4.4,3.3-7.5,3.3c-5.8,0-9.7-3.9-9.7-9.6c0-5.7,3.9-9.6,9.7-9.6c2.8,0,5.3,1,7.1,2.8
		c0.3,0.3,0.4,0.7,0.4,1.1c0,0.9-0.7,1.6-1.6,1.6c-0.4,0-0.8-0.2-1.1-0.5c-1.4-1.3-2.8-2-4.8-2c-3.8,0-6.3,2.6-6.3,6.5
		c0,3.9,2.6,6.5,6.3,6.5c2.1,0,3.8-0.7,5-2.2c0.3-0.3,0.7-0.6,1.3-0.6c1,0,1.6,0.6,1.6,1.6C114,368.4,113.9,368.7,113.7,369z"/>
	<path class="st5" d="M117.1,347.9c0-1.2,0.8-2.1,2.1-2.1c1.3,0,2.1,0.9,2.1,2.1c0,1.2-0.8,2.1-2.1,2.1
		C117.9,350,117.1,349.1,117.1,347.9z M120.9,355.2v15.1c0,1.1-0.6,1.8-1.7,1.8c-1,0-1.6-0.7-1.6-1.8v-15.1c0-1.1,0.6-1.8,1.6-1.8
		C120.2,353.4,120.9,354,120.9,355.2z"/>
	<path class="st5" d="M134.5,353.1c5.8,0,9.8,3.9,9.8,9.6c0,5.7-4,9.6-9.8,9.6c-5.8,0-9.7-3.9-9.7-9.6
		C124.8,357,128.7,353.1,134.5,353.1z M134.5,369.2c3.8,0,6.4-2.6,6.4-6.5c0-3.9-2.6-6.5-6.4-6.5c-3.8,0-6.3,2.6-6.3,6.5
		C128.2,366.6,130.8,369.2,134.5,369.2z M139.1,346.5l-4.5,4.1c-0.3,0.3-0.6,0.5-1.1,0.5c-0.8,0-1.3-0.6-1.3-1.3
		c0-0.5,0.2-0.8,0.5-1.1l4.5-4.4c0.3-0.3,0.7-0.5,1.1-0.5c0.8,0,1.4,0.7,1.4,1.5C139.7,345.9,139.5,346.2,139.1,346.5z"/>
	<path class="st5" d="M166,361.7v8.7c0,1.1-0.7,1.8-1.7,1.8s-1.6-0.7-1.6-1.8V362c0-3.8-1.8-5.8-5.4-5.8c-3.6,0-5.8,2.5-5.8,6.5v7.6
		c0,1.1-0.6,1.8-1.7,1.8c-1,0-1.6-0.7-1.6-1.8v-15.2c0-1.1,0.6-1.8,1.6-1.8c1.1,0,1.7,0.7,1.7,1.8v0.9h0.1c1.4-1.9,3.6-2.9,6.5-2.9
		C163.3,353.1,166,356.1,166,361.7z"/>
	<path class="st5" d="M200.7,357.1c1,0,1.7,0.5,1.7,1.6c0,1-0.7,1.6-1.7,1.6h-3.3v0.1c1.6,0.9,2.6,2.5,2.6,4.8
		c0,4.9-3.8,7.2-10.9,7.2c-7.1,0-10.9-2.7-10.9-7.6c0-3.1,1.7-5.2,4.7-6.2v-0.1c-2.4-1-3.8-2.9-3.8-5.8c0-4.5,3.5-7,9.8-7
		c4.2,0,7.1,1.1,8.8,3c0.2,0.3,0.4,0.7,0.4,1.1c0,0.9-0.7,1.6-1.6,1.6c-0.4,0-0.8-0.2-1.1-0.4c-1.7-1.4-3.5-2.1-6.5-2.1
		c-4.1,0-6.4,1.5-6.4,4.2c0,2.6,2.1,3.9,5.2,3.9H200.7z M196.5,364.5c0-2.7-2.4-4.2-6.2-4.2h-2.3c-3.8,0-6.3,1.5-6.3,4.2
		c0,3.1,2.6,4.7,7.4,4.7C193.9,369.2,196.5,367.5,196.5,364.5z"/>
	<path class="st5" d="M224.8,357.1c8.2,0.1,11,2.2,11,7.2c0,5.1-4.1,8.1-11,8.1c-5.1,0-8.9-1.4-11-4c-0.2-0.3-0.4-0.8-0.4-1.3
		c0-1,0.7-1.8,1.7-1.8c0.7,0,1,0.3,1.3,0.6c1.8,2,4.9,3.1,8.6,3.1c4.4,0,7.2-1.8,7.2-4.7c0-2.5-1.8-3.6-7.7-3.7
		c-7.9-0.1-10.7-2.1-10.7-6.8c0-4.9,4.2-8.1,10.9-8.1c4.2,0,7.5,1.1,9.6,3.3c0.3,0.3,0.5,0.8,0.5,1.3c0,1-0.7,1.8-1.8,1.8
		c-0.6,0-1.1-0.3-1.4-0.6c-1.7-1.7-4.1-2.5-7.1-2.5c-4.2,0-7,1.8-7,4.7C217.4,356.1,219.1,357,224.8,357.1z"/>
	<path class="st5" d="M258.1,355.2v15.1c0,1.1-0.7,1.8-1.7,1.8c-1,0-1.6-0.7-1.6-1.8v-1h-0.1c-1.5,2-3.9,3.1-6.9,3.1
		c-5.4,0-9.1-3.8-9.1-9.6c0-5.7,3.6-9.6,9.1-9.6c3.1,0,5.5,1.1,6.9,3.1h0.1v-1c0-1.1,0.6-1.8,1.6-1.8
		C257.4,353.4,258.1,354,258.1,355.2z M254.8,362.7c0-3.8-2.6-6.5-6.4-6.5c-3.7,0-6.3,2.6-6.3,6.5c0,3.9,2.6,6.5,6.3,6.5
		C252.2,369.2,254.8,366.6,254.8,362.7z"/>
	<path class="st5" d="M266.2,346.7v23.7c0,1.1-0.6,1.8-1.7,1.8c-1,0-1.6-0.7-1.6-1.8v-23.7c0-1.1,0.6-1.8,1.6-1.8
		C265.6,344.9,266.2,345.5,266.2,346.7z"/>
	<path class="st5" d="M288.1,355.2v15.2c0,1-0.7,1.7-1.7,1.7c-1,0-1.6-0.7-1.6-1.7v-1h-0.1c-1.4,1.9-3.6,2.9-6.5,2.9
		c-5.1,0-7.8-3-7.8-8.5v-8.6c0-1.1,0.7-1.8,1.7-1.8c1,0,1.6,0.7,1.6,1.8v8.3c0,3.7,1.8,5.7,5.3,5.7c3.5,0,5.7-2.5,5.7-6.5v-7.6
		c0-1.1,0.7-1.8,1.6-1.8C287.5,353.4,288.1,354,288.1,355.2z"/>
	<path class="st5" d="M311.5,346.7v23.6c0,1.1-0.7,1.8-1.7,1.8c-1,0-1.6-0.7-1.6-1.8v-1h-0.1c-1.5,2-3.9,3.1-6.9,3.1
		c-5.4,0-9.1-3.8-9.1-9.6c0-5.7,3.6-9.6,9.1-9.6c3.1,0,5.5,1.1,6.9,3.1h0.1v-9.5c0-1.1,0.6-1.8,1.6-1.8
		C310.8,344.9,311.5,345.5,311.5,346.7z M308.2,362.7c0-3.8-2.6-6.5-6.4-6.5c-3.7,0-6.3,2.6-6.3,6.5c0,3.9,2.6,6.5,6.3,6.5
		C305.6,369.2,308.2,366.6,308.2,362.7z"/>
</g>
</svg>
